<svg width="56" height="56" viewBox="0 0 56 56" fill="none" xmlns="http://www.w3.org/2000/svg">
<path d="M21.6033 25.3218C21.6033 28.9177 24.5224 31.8432 28.1105 31.8432C31.6987 31.8432 34.6178 28.9177 34.6178 25.3218C34.6178 21.7259 31.6987 18.8004 28.1105 18.8004C24.5224 18.8004 21.6033 21.7259 21.6033 25.3218ZM31.3483 25.3218C31.3483 27.1084 29.8959 28.5619 28.1106 28.5619C26.3254 28.5619 24.873 27.1084 24.873 25.3218C24.873 23.5351 26.3254 22.0817 28.1106 22.0817C29.8959 22.0817 31.3483 23.5351 31.3483 25.3218Z" fill="white"/>
<path d="M38.2831 43.8253C37.2136 41.8362 34.5156 43.3224 35.3165 45.2049L37.6096 50.1706C38.6428 52.1433 41.375 50.7066 40.5762 48.791L38.2831 43.8253Z" fill="white"/>
<path d="M28.2359 44.5737C27.333 44.5737 26.6011 45.3083 26.6011 46.2144V51.695C26.7365 53.9476 29.807 53.7446 29.8707 51.695V46.2144C29.8707 45.3083 29.1388 44.5737 28.2359 44.5737Z" fill="white"/>
<path d="M20.3779 42.9489C19.5586 42.5681 18.5869 42.9256 18.2073 43.7477L15.9142 48.7133C15.0884 50.7124 17.8715 51.9874 18.8808 50.0929L21.1738 45.1273C21.5534 44.3052 21.197 43.3299 20.3779 42.9489Z" fill="white"/>
<path d="M0.586243 16.15C0.892165 16.4067 1.26415 16.5321 1.63406 16.5321C2.10152 16.5321 2.56571 16.3318 2.88902 15.9438C14.3258 3.51755 40.5736 1.84794 52.9012 15.8687C53.4509 16.5875 54.4773 16.7229 55.1935 16.1711C55.9096 15.6195 56.0445 14.5895 55.4948 13.8708C41.7538 -2.00392 12.9692 -0.0254369 0.380727 13.839C-0.198523 14.5341 -0.106429 15.5688 0.586243 16.15Z" fill="white"/>
<path d="M55.7701 24.4836C43.1344 5.23288 12.0059 5.99325 0.446184 24.4913C0.144309 25.007 0.145949 25.6468 0.450668 26.1609C13.0769 45.4025 44.2061 44.6603 55.7746 26.1533C56.0766 25.6375 56.0749 24.9977 55.7701 24.4836ZM39.7924 25.3218C39.7924 31.7604 34.5716 37.0004 28.1468 37.0202C28.0574 37.0197 27.9682 37.0189 27.8793 37.0177C21.5441 36.8939 16.4285 31.6951 16.4285 25.3217C16.4125 18.7914 21.8854 13.4285 28.4346 13.6275C34.7267 13.8001 39.7924 18.9796 39.7924 25.3218ZM3.81165 25.3136C5.67912 22.1314 12.2779 16.8274 16.8402 15.4889C11.7617 21.3052 12.176 29.6901 16.6907 34.9793C9.28106 32.1803 5.20935 27.2761 3.81165 25.3136ZM46.856 31.0452C44.5636 32.8002 42.0662 34.1715 39.3795 35.156C44.4587 29.3402 44.0456 20.9554 39.5313 15.6656C46.9403 18.4648 51.0117 23.3685 52.4093 25.3309C51.5679 26.5368 49.765 28.8181 46.856 31.0452Z" fill="white"/>
</svg>
