<svg width="56" height="56" viewBox="0 0 56 56" fill="none" xmlns="http://www.w3.org/2000/svg">
<path d="M55.8336 31.3545C55.6947 31.0767 55.3475 30.9379 55.0697 30.8684C53.4724 30.8684 39.7224 30.3128 39.7224 14.3405C39.7224 13.8544 39.3057 13.4377 38.8196 13.4377C38.3335 13.4377 37.9168 13.8544 37.9168 14.3405C37.9168 30.3128 24.1667 30.8684 22.6389 30.8684C22.4306 30.8684 22.2223 30.9379 22.0834 31.0767C21.9445 31.1462 21.875 31.2851 21.8056 31.3545C21.6667 31.6323 21.6667 31.9795 21.8056 32.2573C21.9445 32.5351 22.2917 32.7434 22.6389 32.7434C22.6389 32.7434 22.6389 32.7434 22.7084 32.7434C24.3056 32.7434 37.9862 33.299 37.9862 49.2713C37.9862 49.7574 38.4029 50.1741 38.889 50.1741C39.3751 50.1741 39.7918 49.7574 39.7918 49.2713C39.7918 33.3684 53.4724 32.7434 55.0697 32.7434C55.4169 32.7434 55.6947 32.5351 55.903 32.2573C56.0419 31.9795 56.0419 31.6323 55.8336 31.3545ZM38.8196 42.4657C36.8057 35.8684 31.8751 33.0212 27.9862 31.7712C31.8751 30.5212 36.8057 27.6739 38.8196 21.0767C40.8335 27.6739 45.7641 30.5212 49.653 31.7712C45.7641 33.0212 40.8335 35.8684 38.8196 42.4657Z" fill="white"/>
<path d="M27.3612 13.2989C27.8473 13.2989 28.264 12.8822 28.264 12.3267C28.264 11.8406 27.8473 11.4239 27.3612 11.4239C26.5279 11.4239 19.0278 11.1461 19.0278 2.39607C19.0278 1.90996 18.6111 1.49329 18.125 1.49329C17.6389 1.49329 17.2223 1.90996 17.2223 2.39607C17.2223 11.1461 9.72221 11.4239 8.88887 11.4239C8.81942 11.4239 8.81942 11.4239 8.81942 11.4239C8.33331 11.4933 7.98608 11.8406 7.98608 12.3267C7.98608 12.8128 8.40275 13.2295 8.88887 13.2295C9.79165 13.2295 17.2223 13.5073 17.2223 22.2573C17.2223 22.7434 17.6389 23.1601 18.125 23.1601C18.5417 23.2295 18.9584 22.8129 18.9584 22.3267C18.9584 13.5767 26.4584 13.2989 27.2918 13.2989H27.3612ZM18.0556 17.2573C16.9445 14.6184 14.9306 13.16 13.0556 12.3267C15.0695 11.4933 16.9445 9.89612 18.0556 7.3961C19.1667 10.035 21.1806 11.4933 23.0556 12.3267C21.0417 13.16 19.1667 14.7573 18.0556 17.2573Z" fill="white"/>
<path d="M19.3751 42.7435C18.5418 42.7435 11.0417 42.4657 11.0417 33.7156C11.0417 33.2295 10.6251 32.8129 10.139 32.8129C9.65284 32.8129 9.23617 33.2295 9.23617 33.7156C9.23617 42.4657 1.73612 42.7435 0.902783 42.7435C0.833338 42.7435 0.833338 42.7435 0.833338 42.7435C0.347224 42.8129 0 43.1602 0 43.6463C0 44.1324 0.416669 44.5491 0.902783 44.5491C1.80557 44.5491 9.23617 44.8268 9.23617 53.5769C9.23617 54.063 9.65284 54.4797 10.139 54.4797C10.5556 54.6186 10.9723 54.2019 10.9723 53.6463C10.9723 44.8963 18.4723 44.6185 19.3057 44.6185H19.3751C19.8612 44.6185 20.2779 44.2018 20.2779 43.6463C20.2779 43.1602 19.8612 42.7435 19.3751 42.7435ZM10.0695 48.6463C8.88894 46.0074 6.94449 44.549 5.06948 43.7157C7.08338 42.8824 8.95839 41.2851 10.0695 38.7851C11.1806 41.424 13.1945 42.8824 15.0695 43.7157C13.0556 44.549 11.1806 46.1463 10.0695 48.6463Z" fill="white"/>
</svg>
