<svg width="56" height="56" viewBox="0 0 56 56" fill="none" xmlns="http://www.w3.org/2000/svg">
<path d="M30.3333 44.3333H8.16655C7.23861 44.3323 6.34898 43.9632 5.69283 43.307C5.03667 42.6509 4.66759 41.7612 4.66655 40.8333H29.1665C29.3207 40.8348 29.4736 40.8057 29.6165 40.7478C29.7593 40.6898 29.8893 40.6041 29.9988 40.4956C30.1084 40.3871 30.1953 40.258 30.2547 40.1157C30.314 39.9734 30.3445 39.8208 30.3445 39.6666C30.3445 39.5125 30.314 39.3598 30.2547 39.2176C30.1953 39.0753 30.1084 38.9462 29.9988 38.8377C29.8893 38.7292 29.7593 38.6435 29.6165 38.5855C29.4736 38.5276 29.3207 38.4985 29.1665 38.5H4.66655V12.8333C4.66759 11.9054 5.03667 11.0157 5.69283 10.3596C6.34898 9.70342 7.23861 9.33434 8.16655 9.3333H45.5C46.4279 9.33434 47.3175 9.70342 47.9737 10.3596C48.6298 11.0157 48.9989 11.9054 49 12.8333V26.25C49.0029 26.5575 49.1272 26.8513 49.3456 27.0677C49.5641 27.284 49.8591 27.4054 50.1666 27.4054C50.4741 27.4054 50.7691 27.284 50.9876 27.0677C51.206 26.8513 51.3303 26.5575 51.3333 26.25V12.8333C51.3315 11.2867 50.7164 9.80403 49.6228 8.71045C48.5292 7.61687 47.0465 7.00174 45.5 7H8.16655C6.62 7.00174 5.13728 7.61687 4.0437 8.71045C2.95012 9.80403 2.33499 11.2867 2.33325 12.8333V40.8333C2.33499 42.3799 2.95012 43.8626 4.0437 44.9561C5.13728 46.0497 6.62 46.6649 8.16655 46.6666H30.3333C30.6407 46.6636 30.9346 46.5394 31.1509 46.3209C31.3673 46.1025 31.4887 45.8074 31.4887 45.4999C31.4887 45.1925 31.3673 44.8974 31.1509 44.679C30.9346 44.4605 30.6407 44.3363 30.3333 44.3333Z" fill="white"/>
<path d="M22.575 15.7098C22.238 15.5152 21.8558 15.4128 21.4667 15.4128C21.0776 15.4128 20.6953 15.5153 20.3583 15.7098C20.0214 15.9044 19.7415 16.1842 19.547 16.5212C19.3524 16.8582 19.25 17.2404 19.25 17.6295V31.3705C19.2485 31.7602 19.35 32.1434 19.5442 32.4812C19.7384 32.8191 20.0184 33.0996 20.3559 33.2945C20.6934 33.4893 21.0764 33.5915 21.466 33.5908C21.8557 33.59 22.2383 33.4863 22.575 33.2902L34.475 26.4197C34.8119 26.2251 35.0917 25.9453 35.2862 25.6084C35.4807 25.2714 35.5831 24.8892 35.5831 24.5002C35.5831 24.1111 35.4807 23.7289 35.2862 23.3919C35.0917 23.055 34.8119 22.7752 34.475 22.5806L22.575 15.7098ZM21.5833 31.1683V17.8317L33.1333 24.5L21.5833 31.1683Z" fill="white"/>
<path d="M44.5748 34.175C44.356 33.9562 44.0593 33.8334 43.7499 33.8334C43.4405 33.8334 43.1438 33.9562 42.9249 34.175L40.0082 37.0917C39.7921 37.311 39.6715 37.6069 39.6726 37.9148C39.6738 38.2228 39.7966 38.5178 40.0143 38.7355C40.2321 38.9532 40.5271 39.0761 40.835 39.0772C41.1429 39.0784 41.4388 38.9577 41.6581 38.7416L42.5831 37.8166V43.1667C42.5861 43.4742 42.7103 43.768 42.9288 43.9844C43.1473 44.2007 43.4423 44.3221 43.7498 44.3221C44.0573 44.3221 44.3523 44.2007 44.5708 43.9844C44.7892 43.768 44.9134 43.4742 44.9164 43.1667V37.8166L45.8414 38.7416C45.9495 38.8513 46.0781 38.9385 46.22 38.9982C46.3619 39.0579 46.5142 39.0889 46.6682 39.0895C46.8221 39.09 46.9746 39.0601 47.117 39.0015C47.2593 38.9428 47.3886 38.8566 47.4975 38.7478C47.6063 38.6389 47.6926 38.5096 47.7512 38.3672C47.8099 38.2249 47.8398 38.0724 47.8392 37.9184C47.8386 37.7645 47.8076 37.6122 47.7479 37.4703C47.6882 37.3284 47.601 37.1997 47.4913 37.0917L44.5748 34.175Z" fill="white"/>
<path d="M43.75 29.1667C41.7886 29.1667 39.8713 29.7484 38.2405 30.838C36.6097 31.9277 35.3387 33.4765 34.5881 35.2885C33.8375 37.1005 33.6412 39.0945 34.0238 41.0181C34.4064 42.9418 35.3509 44.7087 36.7378 46.0956C38.1247 47.4825 39.8917 48.427 41.8153 48.8096C43.739 49.1922 45.7329 48.9959 47.5449 48.2453C49.357 47.4947 50.9057 46.2237 51.9954 44.5929C53.0851 42.9621 53.6667 41.0448 53.6667 39.0835C53.6637 36.4543 52.618 33.9336 50.7589 32.0745C48.8998 30.2154 46.3791 29.1697 43.75 29.1667ZM43.75 46.6667C42.2501 46.6667 40.784 46.222 39.5369 45.3887C38.2898 44.5555 37.3179 43.3711 36.7439 41.9855C36.1699 40.5998 36.0198 39.075 36.3124 37.604C36.605 36.133 37.3272 34.7818 38.3878 33.7213C39.4483 32.6607 40.7995 31.9385 42.2705 31.6459C43.7415 31.3533 45.2663 31.5034 46.652 32.0774C48.0376 32.6514 49.222 33.6233 50.0552 34.8704C50.8885 36.1175 51.3333 37.5836 51.3333 39.0835C51.331 41.094 50.5313 43.0215 49.1096 44.4431C47.688 45.8648 45.7605 46.6645 43.75 46.6667Z" fill="white"/>
</svg>
